<?xml version="1.0" encoding="utf-8"?>
<!-- Generator: Adobe Illustrator 25.2.1, SVG Export Plug-In . SVG Version: 6.00 Build 0)  -->
<svg version="1.1" id="Layer_1" xmlns="http://www.w3.org/2000/svg" xmlns:xlink="http://www.w3.org/1999/xlink" x="0px" y="0px"
	 viewBox="0 0 868 98.1" style="enable-background:new 0 0 868 98.1;" xml:space="preserve">
<style type="text/css">
	.st0{clip-path:url(#SVGID_2_);}
	.st1{fill:#3C4C7C;}
</style>
<g id="Group_73" transform="translate(-726 -71.883)">
	<g id="Group_69" transform="translate(726 71.883)">
		<g>
			<defs>
				<rect id="SVGID_1_" width="97.6" height="98.1"/>
			</defs>
			<clipPath id="SVGID_2_">
				<use xlink:href="#SVGID_1_"  style="overflow:visible;"/>
			</clipPath>
			<g id="Group_68" class="st0">
				
					<image style="overflow:visible;enable-background:new    ;" width="1416" height="1424" id="Rectangle_128" xlink:href="A970A29497A2217B.jpg"  transform="matrix(6.890239e-02 0 0 6.890239e-02 1.106262e-04 0)">
				</image>
			</g>
		</g>
	</g>
	<g id="Group_70" transform="translate(835.733 95.409)">
		<g id="Group_72">
			<path id="Path_29" class="st1" d="M7.8,5.4v19c0,4.3,0.1,7.3,0.2,9c0,0.8,0.2,1.7,0.6,2.4c0.8,0.4,1.7,0.6,2.6,0.6l1.8,0.1v1.7
				c-2-0.1-3.8-0.2-5.4-0.2C6.6,38,4,38.1,0,38.2v-1.7h2c0.8,0.1,1.6-0.1,2.3-0.5C4.8,35.5,5,34.8,5,34.1c0.2-2,0.3-4.7,0.3-8.2
				V12.2c0-2.6,0-5.1-0.1-7.6c0-0.8-0.1-1.5-0.4-2.2C4.5,2,4.1,1.7,3.7,1.4c-0.6-0.3-1.3-0.5-2-0.5H0v-1.7c2.3,0.1,4.1,0.2,5.3,0.2
				c1.3,0,2.8-0.1,4.3-0.2c1.8,2.2,3.5,4.4,5.1,6.5c1.6,2.1,3.3,4.2,5,6.3l9.4,11.5c3.4,4.1,5.8,7,7.3,8.6V14.5
				c0-7.4-0.1-11.4-0.4-12.1c-0.3-0.7-1.3-1.1-3.2-1.3l-2.1-0.2v-1.7c2.9,0.1,5.2,0.2,6.9,0.2c1.7,0,3.9-0.1,6.6-0.2v1.7h-2.1
				c-1.7,0-2.7,0.6-2.9,1.7C39,3.4,39,7.4,39,14.6V27c0,3.3,0.1,7.3,0.4,11.9c-1.5-0.2-2.9-0.5-4.3-0.8c-0.4-0.2-0.8-0.5-1.2-0.9
				c-2-2.2-4.2-4.7-6.4-7.5L7.8,5.4z"/>
			<path id="Path_30" class="st1" d="M47.4,25.1c0-2.4,0.6-4.8,1.8-6.8c1.2-2,2.9-3.7,4.9-4.8c2.2-1.2,4.7-1.8,7.2-1.7
				c3.5-0.2,6.8,1.1,9.3,3.5c2.4,2.5,3.7,5.8,3.5,9.2c0.2,4.1-1.5,8.1-4.6,10.8c-2.7,2.4-6.2,3.7-9.8,3.6c-3.4,0.1-6.6-1.2-8.9-3.7
				C48.6,32.6,47.4,29.3,47.4,25.1z M52.6,23.1c-0.1,3.4,0.7,6.7,2.3,9.7c1.3,2.5,3.9,4.1,6.7,4c2.1,0.1,4.1-0.9,5.4-2.5
				c1.4-1.7,2-4.2,2-7.7c0.1-2.4-0.4-4.9-1.2-7.2c-0.6-1.8-1.7-3.3-3.2-4.4c-1.3-0.9-2.8-1.4-4.4-1.4c-1.4,0-2.7,0.4-3.9,1.1
				c-1.1,0.7-2,1.7-2.6,2.9C52.9,19.4,52.5,21.3,52.6,23.1z"/>
			<path id="Path_31" class="st1" d="M99.1,38.2l0.3-4.9L97.8,35c-1.1,1.2-2.4,2.2-3.8,2.9c-1.5,0.6-3.2,0.9-4.8,0.8
				c-1.5,0-2.9-0.3-4.2-1c-1.1-0.6-2-1.6-2.6-2.7c-0.6-1.7-0.9-3.5-0.8-5.3c0-1.2,0-2.7,0.1-4.3l0.1-4.4c0.1-1.7,0-3.5-0.3-5.2
				c-0.2-0.3-0.7-0.5-1.7-0.5h-2.4v-1.5c2.3-0.2,4.7-0.7,6.9-1.4l2.3-0.8c0.3,0,0.5,0.2,0.5,0.7l-0.2,2.8c-0.3,3.9-0.4,7.5-0.4,10.8
				c-0.1,2.1,0,4.3,0.4,6.4c0.3,0.9,0.9,1.8,1.7,2.3c0.9,0.6,2.1,1,3.2,0.9c1.7,0,3.3-0.6,4.7-1.6c1.2-0.8,2.2-2,2.8-3.3
				c0.3-1.9,0.5-3.9,0.4-5.8c0-5.4-0.1-8.4-0.3-8.8c-0.2-0.4-1-0.6-2.5-0.6h-2.2v-1.5c1.6-0.2,3.2-0.4,4.8-0.8
				c1.4-0.3,2.8-0.8,4.2-1.3c0.2-0.1,0.3-0.1,0.5-0.1c0.3,0,0.5,0.2,0.5,0.5l-0.1,2.6c-0.3,6.3-0.4,11.8-0.4,16.5
				c0,2.7,0.1,4.2,0.4,4.6c0.4,0.6,1.3,0.8,2.6,0.8h1.6v1.6c-2.3-0.1-4.2-0.2-5.8-0.2C101.5,38,100.3,38.1,99.1,38.2z"/>
			<path id="Path_32" class="st1" d="M120.3,17.9c0.9-0.8,1.7-1.8,2.4-2.7c0.8-1.1,1.7-2,2.9-2.7c0.8-0.5,1.8-0.7,2.8-0.7
				c0.8,0,1.6,0.1,2.3,0.4c0.2,0.1,0.4,0.3,0.4,0.5l0,0.3c-0.3,2.1-0.5,4.1-0.5,6.2h-1.2c-0.3-0.8-0.8-1.5-1.5-2
				c-0.6-0.4-1.3-0.6-2.1-0.6c-1.1,0-2.2,0.4-3,1.1c-1,0.8-1.6,1.9-1.8,3.1c-0.4,2.6-0.6,5.2-0.5,7.7c0,2.1,0.1,4.3,0.3,6.4
				c0.1,0.6,0.3,1,0.5,1.2c1,0.4,2,0.6,3.1,0.6h1.6v1.6c-2.8-0.1-5.4-0.2-8-0.2c-2.4,0-4.8,0.1-7.2,0.2v-1.6l2.6-0.2
				c0.6,0,1.3-0.2,1.8-0.5c0.4-0.8,0.5-1.7,0.5-2.7c0.1-2.6,0.2-5.8,0.2-9.4c0-4.4-0.2-7-0.5-7.8c-0.2-0.5-1-0.7-2.2-0.7h-2.3v-1.6
				c1.6-0.2,3.2-0.4,4.7-0.8c1.3-0.3,2.5-0.7,3.7-1.2c0.2-0.1,0.4-0.2,0.6-0.2c0.2,0,0.3,0,0.4,0.2c0.1,0.2,0.1,0.5,0.1,0.7
				L120.3,17.9z"/>
			<path id="Path_33" class="st1" d="M142.5,11.6l0.7,0.4c-0.1,1.4-0.2,2.9-0.2,4.5c-0.1,5.3-0.2,9.3-0.2,11.8
				c0,2.4,0.1,4.4,0.2,6.1c0,0.5,0.2,1,0.5,1.4c0.6,0.4,1.3,0.6,2,0.6l1.9,0.2v1.6c-2.7-0.1-5.1-0.2-7.3-0.2c-2.2,0-4.3,0.1-6.5,0.2
				v-1.6l2.4-0.2c0.9-0.1,1.5-0.2,1.7-0.5c0.3-0.8,0.5-1.8,0.4-2.7c0.1-2.3,0.1-5.5,0.1-9.6c0-2.8,0-5-0.1-6.6
				c0-0.5-0.2-0.9-0.5-1.2c-0.6-0.3-1.2-0.4-1.9-0.4h-2.1v-1.6c2.2-0.3,3.9-0.6,4.9-0.9C139.8,12.6,141.2,12.1,142.5,11.6z
				 M140.3-0.5c0.8,0,1.6,0.3,2.2,0.9c0.6,0.6,0.9,1.4,0.9,2.2c0,1.7-1.4,3.1-3.1,3.1s-3.1-1.4-3.1-3.1c0,0,0,0,0,0
				c0-0.8,0.3-1.6,0.9-2.2C138.7-0.2,139.5-0.6,140.3-0.5z"/>
			<path id="Path_34" class="st1" d="M152.6,29.8v1.8c-0.1,0.9,0,1.8,0.4,2.7c0.8,0.8,1.7,1.4,2.8,1.7c1.4,0.5,2.8,0.8,4.3,0.8
				c1.7,0.1,3.3-0.5,4.6-1.5c1.1-0.9,1.8-2.2,1.8-3.6c0-1-0.3-2-1-2.7c-1.2-0.9-2.5-1.4-4-1.6c-2.5-0.4-4.9-1-7.2-1.9
				c-2.2-0.9-3.6-3.1-3.5-5.5c-0.1-2.3,0.9-4.5,2.6-5.9c1.8-1.5,4.3-2.3,7.5-2.3c2.6,0,5.2,0.5,7.7,1.5c-0.2,1.2-0.3,3.3-0.4,6.3
				h-1.6c0.1-1.1-0.1-2.2-0.5-3.2c-0.6-0.8-1.4-1.4-2.3-1.8c-1.1-0.5-2.3-0.8-3.6-0.8c-1.4-0.1-2.9,0.4-4,1.3c-1,0.8-1.5,2-1.5,3.2
				c-0.1,1.1,0.4,2.1,1.2,2.8c0.8,0.6,3,1.3,6.5,2c1.8,0.3,3.5,0.8,5.2,1.5c0.9,0.5,1.6,1.2,2,2.1c0.5,1,0.8,2.1,0.8,3.2
				c0,2.5-1.2,4.9-3.2,6.4c-2.4,1.9-5.4,2.8-8.5,2.7c-2.6,0-5.1-0.4-7.6-1.1c-0.5-0.1-0.7-0.3-0.7-0.6l0.1-0.4
				c0.1-0.5,0.2-1,0.2-1.5c0.2-1.8,0.2-3.2,0.2-4.1l0-1.3L152.6,29.8z"/>
			<path id="Path_35" class="st1" d="M182.2,16.9l3.6-3.2c0.7-0.7,1.6-1.3,2.5-1.6c1-0.3,1.9-0.5,2.9-0.4c1.8,0,3.6,0.4,5.3,1.2
				c1.4,0.7,2.4,1.8,3.1,3.1c0.7,2.1,1,4.3,0.9,6.5l-0.2,8.1c0,1.4,0.1,2.9,0.2,4.3c0,0.4,0.2,0.7,0.5,1c0.5,0.3,1,0.4,1.6,0.4
				l2.1,0.2v1.6c-1.8-0.1-3.5-0.2-5.2-0.2c-1.4,0-2.9,0.1-4.3,0.2c0.3-4.6,0.5-9.1,0.5-13.5c0.1-2-0.1-4.1-0.6-6.1
				c-0.4-1-1.1-1.9-2-2.5c-1.1-0.7-2.4-1-3.7-0.9c-1.5,0-2.9,0.4-4.1,1.1c-1.1,0.6-2,1.4-2.6,2.5c-0.4,1.6-0.6,3.2-0.5,4.8v4.8
				c0,4.4,0.1,6.8,0.3,7.2c0.2,0.5,0.9,0.7,2.2,0.8l2.4,0.2v1.6c-2.9-0.1-5.1-0.2-6.9-0.2c-1.8,0-4.2,0.1-7.1,0.2v-1.6l1.7-0.2
				c0.7,0,1.4-0.2,2-0.5c0.3-0.3,0.5-0.7,0.5-1.2c0.1-1,0.2-3.2,0.2-6.6V9.7c0-4.9-0.1-7.6-0.4-8.2c-0.2-0.4-0.9-0.6-2.2-0.6h-1.9
				v-1.7c2.3-0.2,4.6-0.6,6.8-1.2l2.2-0.8c0.3,0,0.4,0.2,0.4,0.6l-0.1,1.1l-0.2,4.9c-0.1,2.5-0.1,4.4-0.1,5.8L182.2,16.9z"/>
			<path id="Path_36" class="st1" d="M215.3,11.6L216,12c-0.1,1.4-0.2,2.9-0.2,4.5c-0.1,5.3-0.2,9.3-0.2,11.8c0,2.4,0.1,4.4,0.2,6.1
				c0,0.5,0.2,1,0.5,1.4c0.6,0.4,1.3,0.6,2,0.6l1.9,0.2v1.6c-2.7-0.1-5.1-0.2-7.3-0.2c-2.2,0-4.3,0.1-6.5,0.2v-1.6l2.4-0.2
				c0.9-0.1,1.5-0.2,1.7-0.5c0.3-0.8,0.5-1.8,0.4-2.7c0.1-2.3,0.1-5.5,0.1-9.6c0-2.8,0-5-0.1-6.6c0-0.5-0.2-0.9-0.5-1.2
				c-0.6-0.3-1.2-0.4-1.9-0.4h-2.1v-1.6c2.2-0.3,3.9-0.6,4.9-0.9C212.7,12.6,214,12.1,215.3,11.6z M213.1-0.5c0.8,0,1.6,0.3,2.2,0.9
				c0.6,0.6,0.9,1.4,0.9,2.2c0,1.7-1.3,3.1-3,3.1s-3.1-1.3-3.1-3c0,0,0-0.1,0-0.1c0-0.8,0.3-1.6,0.9-2.2
				C211.5-0.2,212.3-0.6,213.1-0.5z"/>
			<path id="Path_37" class="st1" d="M231.2,16.9l4.1-3.7c0.5-0.4,1-0.7,1.6-1c1.2-0.4,2.4-0.6,3.6-0.6c1.8,0,3.5,0.4,5.1,1.2
				c1.3,0.7,2.4,1.8,3.1,3.1c0.7,1.9,1.1,3.9,0.9,6l-0.1,8.6c0,3,0.1,4.7,0.4,5.2c0.5,0.6,1.2,1,2,0.9h2v1.6c-2-0.1-3.6-0.2-5.1-0.2
				c-1.4,0-2.9,0.1-4.5,0.2c0.3-3.6,0.5-8.4,0.5-14.4c0.1-1.8-0.1-3.5-0.6-5.2c-0.4-1-1.2-1.9-2.2-2.5c-1.1-0.6-2.4-1-3.7-0.9
				c-1.6,0-3.2,0.4-4.5,1.3c-1.1,0.7-1.9,1.7-2.3,3c-0.3,1.9-0.3,3.7-0.3,5.6c0,3.3,0,6.5,0.1,9.3c-0.1,0.6,0.1,1.1,0.4,1.6
				c0.7,0.5,1.5,0.7,2.3,0.6h2v1.6c-3.1-0.1-5.6-0.2-7.4-0.2c-1.9,0-4.1,0.1-6.6,0.2v-1.6h2c1.4,0,2.1-0.3,2.4-0.9
				c0.2-0.6,0.3-4.4,0.3-11.4c0-3.1,0-5.6-0.1-7.3c0-0.4-0.1-0.9-0.4-1.2c-0.7-0.3-1.4-0.4-2.2-0.3h-2v-1.6c1.4-0.2,2.8-0.4,4.2-0.7
				c1.4-0.4,2.8-0.9,4.2-1.4c0.1-0.1,0.3-0.1,0.5-0.1c0.3,0,0.4,0.2,0.4,0.6l0,1L231.2,16.9z"/>
			<path id="Path_38" class="st1" d="M278.5,16.8c0.4,0.9,0.6,1.9,0.6,2.9c0,1.7-0.5,3.3-1.5,4.7c-1.1,1.6-2.5,2.8-4.2,3.7
				c-1.8,0.9-3.9,1.4-5.9,1.4l-1.3,0c-0.8,0.6-1.6,1.2-2.3,2c-0.3,0.4-0.5,0.8-0.5,1.3c0,0.7,0.4,1.3,1.1,1.6
				c1.4,0.5,2.9,0.7,4.4,0.6c0.8,0,2,0,3.6-0.1c2.2-0.1,3.9-0.2,4.9-0.2c1.1-0.1,2.3,0.2,3.3,0.7c0.9,0.6,1.6,1.5,2,2.4
				c0.6,1.2,0.8,2.6,0.8,3.9c0,2.1-0.7,4.2-1.9,5.9c-1.4,2-3.2,3.5-5.4,4.5c-2.6,1.2-5.4,1.8-8.2,1.7c-3.8,0-6.7-0.8-8.7-2.5
				c-1.9-1.4-3-3.7-3-6c0-1.6,0.6-3.2,1.6-4.5c1.7-0.8,3.3-1.7,4.8-2.7c-1-0.3-2-0.7-2.9-1.4c-0.4-0.4-0.7-1-0.6-1.6
				c0-0.8,0.2-1.6,0.6-2.3c0.5-0.7,1.1-1.3,1.8-1.7l2.7-1.9c-1.8-0.3-3.4-1.1-4.7-2.3c-1.3-1.4-2-3.3-1.9-5.2c0-1.8,0.5-3.5,1.4-5.1
				c1-1.6,2.5-2.8,4.2-3.6c2.1-1.1,4.5-1.6,6.8-1.7c2.5-0.1,5,0.8,6.9,2.4h2.3c1.8,0,3.7-0.1,5.5-0.2l0.3,0.6
				c-0.5,0.8-1,1.6-1.5,2.5L278.5,16.8z M266.9,38.6c-0.9-0.1-1.8,0.1-2.7,0.4c-1.1,0.6-2,1.4-2.8,2.4c-0.6,1.1-0.9,2.3-0.8,3.6
				c0,1.9,0.8,3.7,2.2,4.9c1.7,1.4,3.9,2.1,6.2,1.9c1.8,0,3.7-0.3,5.3-1.1c1.5-0.7,2.7-1.8,3.6-3.1c0.8-1.2,1.3-2.6,1.3-4.1
				c0-1.1-0.3-2.2-0.9-3.1c-0.5-0.8-1.2-1.4-2.1-1.7c-0.9-0.2-1.9-0.2-2.9-0.2L266.9,38.6z M274.4,21.2c0.1-2-0.5-4-1.8-5.5
				c-2.1-2.5-5.8-2.8-8.3-0.7c-0.1,0.1-0.2,0.2-0.3,0.3c-1.1,1.3-1.7,3-1.6,4.7c-0.1,2.1,0.5,4.1,1.7,5.7c1.1,1.3,2.7,2.1,4.4,2.1
				c1.6,0.1,3.2-0.6,4.3-1.7C273.9,24.7,274.5,22.9,274.4,21.2L274.4,21.2z"/>
			<path id="Path_39" class="st1" d="M311.4,35.5c1.8,0.1,3.5,0.1,5.2,0.1c3.4,0,6.1-0.1,8.1-0.3c1.4-0.2,2.8-0.4,4.2-0.8l1.6-6.4
				h1.8c-0.5,3.5-0.8,6.7-1.1,9.7c-2.2,0.3-4.5,0.5-6.7,0.4l-13-0.2c-1.8,0-4.5,0.1-8.2,0.3v-1.5c1.5-0.6,2.3-1.3,2.6-2.1
				c0.3-0.7,0.4-3.6,0.4-8.7V11.1c0-5.5-0.1-8.5-0.4-9.2s-1-0.9-2.2-0.9h-3v-1.7c4.3,0.1,7.2,0.2,8.7,0.2c1.9,0,4.5-0.1,7.7-0.2v1.7
				h-3.4c-1,0-1.6,0.3-1.8,0.8c-0.3,0.6-0.4,2.9-0.4,6.9v17.5l0.1,7.7L311.4,35.5z"/>
			<path id="Path_40" class="st1" d="M343.9,11.6l0.7,0.4c-0.1,1.4-0.2,2.9-0.2,4.5c-0.1,5.3-0.2,9.3-0.2,11.8
				c0,2.4,0.1,4.4,0.2,6.1c0,0.5,0.2,1,0.5,1.4c0.6,0.4,1.3,0.6,2,0.6l1.9,0.2v1.6c-2.7-0.1-5.1-0.2-7.3-0.2c-2.2,0-4.3,0.1-6.5,0.2
				v-1.6l2.4-0.2c0.9-0.1,1.5-0.2,1.7-0.5c0.3-0.8,0.5-1.8,0.4-2.7c0.1-2.3,0.1-5.5,0.1-9.6c0-2.8,0-5-0.1-6.6
				c0-0.5-0.2-0.9-0.5-1.2c-0.6-0.3-1.2-0.4-1.9-0.4h-2.1v-1.6c2.2-0.3,3.9-0.6,4.9-0.9C341.2,12.6,342.6,12.1,343.9,11.6z
				 M341.7-0.5c0.8,0,1.6,0.3,2.2,0.9c0.6,0.6,0.9,1.4,0.9,2.2c0,1.7-1.4,3.1-3.1,3.1s-3.1-1.4-3.1-3.1c0,0,0,0,0,0
				c0-0.8,0.3-1.6,0.9-2.2C340.1-0.2,340.9-0.6,341.7-0.5L341.7-0.5z"/>
			<path id="Path_41" class="st1" d="M360,16.5v10.7c0,5.1,0.2,8,0.5,8.6c0.3,0.6,1.2,0.9,2.8,0.9h2.4v1.6c-3-0.1-5.2-0.2-6.5-0.2
				l-8.7,0.2v-1.6h1.8c1.4,0,2.3-0.3,2.5-0.8c0.3-0.8,0.5-3.6,0.5-8.6V16.5l-3.9,0.2v-1.1c1.3-0.6,2.6-1.3,3.9-2v-3.5
				c-0.1-1.5,0.2-3,0.7-4.3c0.7-1.5,1.7-2.8,2.9-4c1.3-1.5,2.9-2.9,4.5-4c0.8-0.4,1.8-0.7,2.7-0.6c0.8,0,1.6,0.1,2.4,0.4
				c-0.1,0.9-0.1,1.7-0.1,2.2c0,0.6,0,1.3,0.1,2.3L368,2.4c-1-0.9-2.3-1.4-3.7-1.4c-1.3-0.1-2.6,0.5-3.3,1.6c-0.6,1-1,3.6-1,7.6v3.7
				c3,0,5.4-0.1,7.3-0.3l0.2,0.3l-0.4,2.6l-3.4-0.1C362.8,16.4,361.6,16.4,360,16.5z"/>
			<path id="Path_42" class="st1" d="M375.4,25c0.1,3.6,1,6.3,2.8,8.2c1.8,1.9,4.3,2.9,6.9,2.8c1.3,0,2.6-0.2,3.8-0.6
				c1.3-0.5,2.6-1.1,3.8-1.9l0.5,0.4l-0.9,2.3c-1.5,0.9-3,1.5-4.7,2c-1.6,0.4-3.3,0.7-5,0.7c-3.4,0.1-6.6-1.1-9-3.5
				c-2.3-2.3-3.4-5.5-3.4-9.6c-0.1-2.8,0.6-5.5,1.9-8c1.2-1.8,2.8-3.2,4.7-4.1c2-1.2,4.3-1.8,6.6-1.9c2.8-0.1,5.6,0.9,7.7,2.9
				c1.9,1.9,2.8,4.6,2.8,8l-0.1,1.6c-1.1,0.3-2.3,0.5-3.4,0.6c-2,0.1-4.7,0.2-8.1,0.2L375.4,25z M375.4,22.9c2.8,0.1,6,0.2,9.4,0.2
				c1.4,0,2.7-0.1,4-0.2v-1.5c0-1.6-0.3-3.1-1-4.6c-0.5-0.9-1.2-1.7-2.1-2.2c-1.1-0.6-2.3-0.9-3.5-0.9c-1.9-0.1-3.7,0.8-4.9,2.2
				C376.1,17.4,375.5,19.7,375.4,22.9L375.4,22.9z"/>
			<path id="Path_43" class="st1" d="M421.5,18.8v7.7c0,1.3,0,2.9,0.1,4.6c0.1,2.5,0.2,3.9,0.3,4.1c0.2,0.4,0.4,0.6,0.8,0.8
				c0.7,0.3,1.5,0.5,2.2,0.4h1.9v1.7c-2.4-0.1-4.7-0.2-6.9-0.2c-2.1,0-5.2,0.1-9.2,0.2v-1.7h1.7c1.9,0,3.1-0.3,3.4-1
				c0.3-0.6,0.5-3.6,0.5-8.9V10.1c0-4.8-0.2-7.5-0.5-8.2c-0.4-0.6-1.4-1-3.1-1h-2v-1.7c3,0.1,5.8,0.2,8.4,0.2c2.6,0,5.2-0.1,7.6-0.2
				v1.7h-1.2c-1.1-0.1-2.1,0-3.2,0.4c-0.4,0.3-0.7,0.8-0.7,1.3c-0.2,2.4-0.3,4.9-0.2,7.3v6.3c3.3,0.1,7.4,0.2,12.4,0.2
				c4.3,0,7.7-0.1,10.4-0.2v-5.4c0-2.6-0.1-5.3-0.3-7.9c0-0.6-0.3-1.2-0.7-1.6c-0.8-0.4-1.7-0.6-2.6-0.5h-2v-1.7
				c2.8,0.1,5.5,0.2,8,0.2c2.7,0,5.5-0.1,8.4-0.2v1.7H453c-0.9-0.1-1.9,0.1-2.7,0.5c-0.5,0.5-0.7,1.1-0.7,1.7
				c-0.1,0.8-0.1,3.5-0.1,7.9v15.2c0,5.6,0.2,8.7,0.5,9.4s1.3,1,3,1h2.1v1.7c-2.5-0.1-5.1-0.2-7.8-0.2c-3.1,0-5.9,0.1-8.6,0.2v-1.7
				h1.9c0.9,0.1,1.9-0.1,2.7-0.5c0.5-0.5,0.7-1.1,0.7-1.8c0.2-1.9,0.3-4.6,0.3-8.2v-7.1c-2.6-0.1-5.9-0.2-9.9-0.2
				C428.8,18.6,424.4,18.7,421.5,18.8z"/>
			<path id="Path_44" class="st1" d="M463,25c0.1,3.6,1,6.3,2.8,8.2c1.8,1.9,4.3,2.9,6.9,2.8c1.3,0,2.6-0.2,3.8-0.6
				c1.3-0.5,2.6-1.1,3.8-1.9l0.5,0.4l-0.9,2.3c-1.5,0.9-3,1.5-4.7,2c-1.6,0.4-3.3,0.7-5,0.7c-3.4,0.1-6.6-1.1-9-3.5
				c-2.3-2.3-3.4-5.5-3.4-9.6c-0.1-2.8,0.6-5.5,1.9-8c1.2-1.8,2.8-3.2,4.7-4.1c2-1.2,4.3-1.8,6.6-1.9c2.8-0.1,5.6,0.9,7.7,2.9
				c1.9,1.9,2.8,4.6,2.8,8l-0.1,1.6c-1.1,0.3-2.3,0.5-3.4,0.6c-2,0.1-4.7,0.2-8.1,0.2L463,25z M463.1,22.9c2.8,0.1,6,0.2,9.4,0.2
				c1.4,0,2.7-0.1,4-0.2v-1.5c0-1.6-0.3-3.1-1-4.6c-0.5-0.9-1.2-1.7-2.1-2.2c-1.1-0.6-2.3-0.9-3.5-0.9c-1.9-0.1-3.7,0.8-4.9,2.2
				C463.7,17.4,463.1,19.7,463.1,22.9L463.1,22.9z"/>
			<path id="Path_45" class="st1" d="M487,19.2l0-1.8l0-1.9l3-1.7c1.1-0.7,2.3-1.2,3.6-1.6c1.1-0.3,2.2-0.4,3.2-0.4
				c2.2-0.1,4.3,0.5,6.1,1.7c1.5,1,2.5,2.6,2.8,4.3c0.3,3.2,0.5,6.5,0.4,9.8c0,4.9,0.1,7.6,0.3,8.1c0.2,0.5,0.6,0.8,1.4,0.8h2.1v1.8
				c-2.1-0.1-3.5-0.2-4.4-0.2c-1,0-2.4,0.1-4.1,0.2l0-2.4c0-0.8,0-1.6,0-2.4l-5.7,4.3c-0.5,0.4-1,0.6-1.5,0.8
				c-0.7,0.2-1.4,0.3-2.1,0.2c-2,0.1-3.9-0.5-5.4-1.7c-1.3-1.2-1.9-2.9-1.9-4.7c0-1.7,0.4-3.4,1.3-4.8c0.9-1.4,2.2-2.5,3.8-3.1
				c1.6-0.7,5.4-1.5,11.4-2.6c0.1-1.9-0.4-3.7-1.5-5.2c-1.4-1.5-3.3-2.3-5.3-2.2c-0.8,0-1.7,0.1-2.5,0.3c-0.8,0.2-1.5,0.5-2.1,1
				c-0.5,1.3-1,2.6-1.5,3.8L487,19.2z M501.5,23.5c-5.1,1.1-8.3,2.1-9.7,3.1c-1.4,1-2.2,2.7-2.1,4.4c-0.1,1.2,0.4,2.4,1.2,3.2
				c0.8,0.8,1.9,1.3,3,1.2c1.4,0,2.8-0.4,3.9-1.1c1.4-0.9,2.6-2.1,3.6-3.4l-0.1-6.1L501.5,23.5z"/>
			<path id="Path_46" class="st1" d="M522.1-2.5c-0.3,5.4-0.5,10.2-0.5,14.5v14.1c0,5.6,0.1,8.8,0.4,9.5c0.1,0.4,0.7,0.6,1.8,0.7
				l2.3,0.2v1.6c-2-0.1-3.9-0.2-5.7-0.2c-2,0-4.7,0.1-7.9,0.2v-1.6l2.4-0.2c1-0.1,1.6-0.4,1.8-0.8c0.2-0.7,0.4-4,0.4-9.7v-14l0-5.3
				L516.9,3c0.1-0.6,0-1.1-0.3-1.6c-0.5-0.4-1.2-0.5-1.8-0.4h-2.2v-1.6c3.1-0.2,6.2-0.9,9.1-2.1L522.1-2.5z"/>
			<path id="Path_47" class="st1" d="M537.7,16.7v10.8c-0.1,1.8,0,3.6,0.3,5.4c0.1,0.7,0.5,1.4,1.1,1.8c0.6,0.5,1.4,0.7,2.1,0.7
				c0.5,0,1.1-0.1,1.6-0.3c0.5-0.2,1-0.6,1.5-0.9l0.8,1l-2.7,3.1c-0.6,0.2-1.1,0.3-1.7,0.5c-0.5,0.1-1.1,0.2-1.6,0.2
				c-1.2,0-2.4-0.2-3.4-0.7c-0.9-0.4-1.6-1.1-2-1.9c-0.5-1.1-0.7-2.3-0.6-3.5l0.1-5.3V16.9c-1.4,0-2.9,0.1-4.4,0.2v-1.2
				c1.6-0.6,3-1.2,4.4-1.9c0-2.6-0.1-5.4-0.2-8.5c1.6-0.6,3.1-1.4,4.6-2.2l0.7,0.5c-0.1,1.4-0.3,4.8-0.5,10.1c2.2,0,4,0,5.5-0.1
				l2.2-0.1l-0.3,2.8l-1.1,0l-5.3,0H537.7z"/>
			<path id="Path_48" class="st1" d="M555.8,16.9l3.6-3.2c0.7-0.7,1.6-1.3,2.5-1.6c1-0.3,1.9-0.5,2.9-0.4c1.8,0,3.7,0.4,5.3,1.2
				c1.4,0.7,2.4,1.8,3.1,3.1c0.7,2.1,1,4.3,0.9,6.5l-0.2,8.1c0,1.4,0.1,2.9,0.2,4.3c0,0.4,0.2,0.7,0.5,1c0.5,0.3,1,0.4,1.6,0.4
				l2.1,0.2v1.6c-1.8-0.1-3.5-0.2-5.2-0.2c-1.4,0-2.9,0.1-4.3,0.2c0.3-4.6,0.5-9.1,0.5-13.5c0.1-2-0.1-4.1-0.6-6.1
				c-0.4-1-1.1-1.9-2-2.5c-1.1-0.7-2.4-1-3.7-0.9c-1.5,0-2.9,0.4-4.1,1.1c-1.1,0.6-2,1.4-2.6,2.5c-0.4,1.6-0.6,3.2-0.5,4.8v4.8
				c0,4.4,0.1,6.8,0.3,7.2s0.9,0.7,2.2,0.8l2.4,0.2v1.6c-2.9-0.1-5.1-0.2-6.9-0.2c-1.8,0-4.2,0.1-7.1,0.2v-1.6l1.7-0.2
				c0.7,0,1.4-0.2,2-0.5c0.3-0.3,0.5-0.7,0.5-1.2c0.1-1,0.2-3.2,0.2-6.6V9.7c0-4.9-0.1-7.6-0.4-8.2c-0.2-0.4-0.9-0.6-2.2-0.6h-1.9
				v-1.7c2.3-0.2,4.6-0.6,6.8-1.2l2.2-0.8c0.3,0,0.4,0.2,0.4,0.6l-0.1,1.1l-0.2,4.9c-0.1,2.5-0.1,4.4-0.1,5.8L555.8,16.9z"/>
			<path id="Path_49" class="st1" d="M627.8,9.1l-0.2-4.9c-1.6-1.1-3.3-1.9-5.1-2.4c-1.8-0.5-3.7-0.8-5.6-0.8
				c-4.9,0-8.9,1.5-11.9,4.5c-3,3-4.5,7-4.5,12c-0.1,3.3,0.7,6.5,2.3,9.4c1.5,2.7,3.7,5,6.4,6.6c2.7,1.6,5.7,2.4,8.8,2.4
				c2.4,0,4.9-0.3,7.3-0.8c2-0.5,3.8-1.4,5.4-2.6l0.6,0.5c-0.4,0.8-0.7,1.7-1.1,2.6c-2.1,1-4.2,1.8-6.5,2.4
				c-2.1,0.5-4.3,0.8-6.5,0.8c-4.1,0.1-8.2-0.8-11.9-2.6c-3.3-1.6-6-4.1-7.9-7.2c-1.8-3.1-2.8-6.7-2.7-10.4
				c-0.1-3.6,0.9-7.2,2.8-10.3c1.9-3.1,4.6-5.5,7.8-7.1c3.9-1.8,8.2-2.6,12.4-2.5c3.1,0.1,6.1,0.5,9,1.3c1.7,0.4,3.1,0.7,4.2,0.9
				c-1,2.7-1.4,5.5-1.4,8.3L627.8,9.1z"/>
			<path id="Path_50" class="st1" d="M639.2,25c0.1,3.6,1,6.3,2.8,8.2c1.8,1.9,4.3,2.9,6.9,2.8c1.3,0,2.6-0.2,3.8-0.6
				c1.3-0.5,2.6-1.1,3.8-1.9l0.5,0.4l-0.9,2.3c-1.5,0.9-3,1.5-4.7,2c-1.6,0.4-3.3,0.7-5,0.7c-3.4,0.1-6.6-1.1-9-3.5
				c-2.3-2.3-3.4-5.5-3.4-9.6c-0.1-2.8,0.6-5.5,1.9-8c1.2-1.8,2.8-3.2,4.7-4.1c2-1.2,4.3-1.8,6.6-1.9c2.8-0.1,5.6,0.9,7.7,2.9
				c1.9,1.9,2.8,4.6,2.8,8l-0.1,1.6c-1.1,0.3-2.3,0.5-3.4,0.6c-2,0.1-4.7,0.2-8.1,0.2L639.2,25z M639.2,22.9c2.8,0.1,6,0.2,9.4,0.2
				c1.4,0,2.7-0.1,4-0.2v-1.5c0-1.6-0.3-3.1-1-4.6c-0.5-0.9-1.2-1.7-2.1-2.2c-1.1-0.6-2.3-0.9-3.5-0.9c-1.9-0.1-3.7,0.8-4.9,2.2
				C639.9,17.4,639.3,19.7,639.2,22.9L639.2,22.9z"/>
			<path id="Path_51" class="st1" d="M669.2,16.9l4.1-3.7c0.5-0.4,1-0.7,1.6-1c1.2-0.4,2.4-0.6,3.6-0.6c1.8,0,3.5,0.4,5.1,1.2
				c1.3,0.7,2.4,1.8,3.1,3.1c0.7,1.9,1,3.9,0.9,6l-0.1,8.6c0,3,0.1,4.7,0.4,5.2c0.5,0.6,1.2,1,2,0.9h2v1.6c-1.9-0.1-3.6-0.2-5.1-0.2
				c-1.4,0-2.9,0.1-4.5,0.2c0.3-3.6,0.5-8.4,0.5-14.4c0.1-1.8-0.1-3.5-0.6-5.2c-0.4-1-1.2-1.9-2.2-2.5c-1.1-0.6-2.4-1-3.7-0.9
				c-1.6,0-3.2,0.4-4.5,1.3c-1.1,0.7-1.9,1.7-2.3,3c-0.3,1.9-0.3,3.7-0.3,5.6c0,3.3,0,6.5,0.1,9.3c-0.1,0.6,0.1,1.1,0.4,1.6
				c0.7,0.5,1.5,0.7,2.3,0.6h2v1.6c-3.1-0.1-5.6-0.2-7.4-0.2c-1.9,0-4.1,0.1-6.6,0.2v-1.6h2c1.4,0,2.1-0.3,2.4-0.9s0.3-4.4,0.3-11.4
				c0-3.1,0-5.6-0.1-7.3c0-0.4-0.1-0.9-0.4-1.2c-0.7-0.3-1.4-0.4-2.2-0.3h-2v-1.6c1.4-0.2,2.8-0.4,4.2-0.7c1.4-0.4,2.8-0.9,4.2-1.4
				c0.1-0.1,0.3-0.1,0.5-0.1c0.3,0,0.4,0.2,0.4,0.6l0,1L669.2,16.9z"/>
			<path id="Path_52" class="st1" d="M702.2,16.7v10.8c-0.1,1.8,0,3.6,0.3,5.4c0.1,0.7,0.5,1.4,1.1,1.8c0.6,0.5,1.4,0.7,2.1,0.7
				c0.5,0,1.1-0.1,1.5-0.3c0.5-0.2,1-0.6,1.5-0.9l0.8,1l-2.7,3.1c-0.6,0.2-1.1,0.3-1.7,0.5c-0.5,0.1-1.1,0.2-1.6,0.2
				c-1.2,0-2.4-0.2-3.4-0.7c-0.9-0.4-1.6-1.1-2-1.9c-0.5-1.1-0.7-2.3-0.6-3.5l0.1-5.3V16.9c-1.4,0-2.9,0.1-4.4,0.2v-1.2
				c1.6-0.6,3-1.2,4.4-1.9c0-2.6-0.1-5.4-0.2-8.5c1.6-0.6,3.1-1.4,4.6-2.2l0.7,0.5c-0.1,1.4-0.3,4.8-0.5,10.1c2.2,0,4,0,5.5-0.1
				l2.2-0.1l-0.3,2.8l-1.1,0l-5.3,0H702.2z"/>
			<path id="Path_53" class="st1" d="M717.1,25c0.1,3.6,1,6.3,2.8,8.2c1.8,1.9,4.3,2.9,6.9,2.8c1.3,0,2.6-0.2,3.8-0.6
				c1.3-0.5,2.6-1.1,3.8-1.9l0.5,0.4l-0.9,2.3c-1.5,0.9-3,1.5-4.7,2c-1.6,0.4-3.3,0.7-5,0.7c-3.4,0.1-6.6-1.1-9-3.5
				c-2.3-2.3-3.4-5.5-3.4-9.6c-0.1-2.8,0.6-5.5,1.9-8c1.2-1.8,2.8-3.2,4.7-4.1c2-1.2,4.3-1.8,6.6-1.9c2.8-0.1,5.6,0.9,7.7,2.9
				c1.9,1.9,2.8,4.6,2.8,8l-0.1,1.6c-1.1,0.3-2.3,0.5-3.5,0.6c-2,0.1-4.7,0.2-8.1,0.2L717.1,25z M717.1,22.9c2.8,0.1,6,0.2,9.4,0.2
				c1.4,0,2.7-0.1,4-0.2v-1.5c0-1.6-0.3-3.1-1-4.6c-0.5-0.9-1.2-1.7-2.1-2.2c-1.1-0.6-2.3-0.9-3.5-0.9c-1.9-0.1-3.7,0.8-4.9,2.2
				C717.8,17.4,717.2,19.7,717.1,22.9L717.1,22.9z"/>
			<path id="Path_54" class="st1" d="M747.6,17.9c0.9-0.8,1.7-1.8,2.4-2.7c0.8-1.1,1.7-2,2.9-2.7c0.8-0.5,1.8-0.7,2.8-0.7
				c0.8,0,1.6,0.1,2.3,0.4c0.2,0.1,0.4,0.3,0.4,0.5l0,0.3c-0.3,2.1-0.5,4.1-0.5,6.2h-1.2c-0.3-0.8-0.8-1.5-1.5-2
				c-0.6-0.4-1.3-0.6-2.1-0.6c-1.1,0-2.2,0.4-3,1.1c-1,0.8-1.6,1.9-1.8,3.1c-0.4,2.6-0.6,5.2-0.5,7.7c0,2.1,0.1,4.3,0.3,6.4
				c0.1,0.6,0.3,1,0.5,1.2c1,0.4,2,0.6,3.1,0.6h1.6v1.6c-2.8-0.1-5.5-0.2-8-0.2c-2.4,0-4.8,0.1-7.2,0.2v-1.6l2.6-0.2
				c0.6,0,1.3-0.2,1.8-0.5c0.4-0.8,0.5-1.7,0.5-2.7c0.1-2.6,0.2-5.8,0.2-9.4c0-4.4-0.2-7-0.5-7.8c-0.2-0.5-1-0.7-2.2-0.7h-2.3v-1.6
				c1.6-0.2,3.2-0.4,4.7-0.8c1.3-0.3,2.5-0.7,3.7-1.2c0.2-0.1,0.4-0.2,0.6-0.2c0.2,0,0.3,0,0.4,0.2c0.1,0.2,0.1,0.5,0.1,0.7
				L747.6,17.9z"/>
		</g>
	</g>
</g>
</svg>
